<?xml version="1.0" encoding="UTF-8"?>
<svg id="_레이어_1" data-name="레이어_1" xmlns="http://www.w3.org/2000/svg" version="1.1" viewBox="0 0 600 600">
  <!-- Generator: Adobe Illustrator 30.2.1, SVG Export Plug-In . SVG Version: 2.1.1 Build 1)  -->
  <defs>
    <style>
      .st0 {
        fill: #fff;
      }

      .st1 {
        fill: #f30;
      }
    </style>
  </defs>
  <rect class="st1" x="16.59" y="16.24" width="575.1" height="583.76"/>
  <path class="st0" d="M128.78,16.24c-.45,4.43,1.87,1.47,4.25,8.24,1.43,4.07,3.21,7.83,4.33,12.03.28,1.06,2.45,10.98,4.28,7.84l5.23-8.98c1.34-2.3,1.11-5.24,1.3-8.06l-7.5-6.16c-.97-.8-2.09-1.65-3.27-1.84l-4.91-.8c-.88-.14-2.07-1.45-2.36-2.27h461.54v454.45l-2.67-1.07c-.47-2.42-1.55-4.07-3.5-5.38-1.79,2.66-3.09,5.21-4.1,8.19-2.94,8.74-5.25,17.32-7.31,26.36-2.86,12.58-7.92,23.87-15.45,34.32l-4.76,6.61c-2.61,3.63,5.67-.15,5.8,5.41l-1.18,3.95c5.51.05,15.3-7.11,18.21-11.39,10.71-15.76,12.82-32.37,14.96-50.34v112.65h-75.42c.31-.26,1.1-.79,1.56-.94,2.22-.72,1.93-2.27,1.71-4.16-.67-5.88-.4-11.7-.42-17.71l-.09-34.08-3.07-4.68c-.52-.79-6.31-12.89-3.44-14.26.33,2.39.53,4.76,1.98,6.68l4.81,6.4c-.31-8.18,2.29-11.41,3.17-17.62.3-2.1,1.03-4.44,3.16-4.86l-1.19,5.17,3.79.25c-.28.57-.8,1.46-1.15,1.93l-.69.94c-.2.26,1.01.85,1.34.85,6.46.07,4.67,4.84,7.75,3.45,3.45-1.56,3.78,3.13,5.99.16l6.82-9.11,4.28-6.24c2.29-3.34,4.15-6.91,5.64-10.71l6.82-17.33c1.44-3.65,3.36-6.78,5.98-9.64l5.65-6.17c3.64-3.97,5.94-8.61,7-13.92,1.33-6.64,1.71-13.14,1.61-19.95-.1-6.64-1.26-16.95-9.76-18.05l-.73,16.4c-5.92-11.35.54-19.18-.92-31.85-1.05-9.18-2.99-17.95-6.12-26.69-1.64-4.57-4.53-9.37-8.33-12.27-2.06-1.57-4.09-1.99-5.44-4.5-5.85-10.85-4.32-14.29-6.96-23.06-1.32-4.37-6.05-3.2-6.89-5.4l-2.79-7.3c-2.61-6.82-6.85-12.49-13.15-16.28-3.98-2.39-8.79-3.45-13.31-1.76-3.69,1.38-7.52,6.7-11.18,8.66-8.24-5.78-15.93-11.58-25.06-15.55-5.89-2.56-19.68-3.06-25.25-4.96-6-2.06-11.9-3.78-18.22-4.59-10.51-1.35-12.66,2.66-16.75-.14-4.93-3.37-9.48-6.82-13.8-10.94-2.29-2.18-3.71-5.05-4.91-8-3.85-9.5-8.53-18.36-15.25-26.1s-8.49-4.1-10.84-7.93c-3.43-5.59-8.87-9.34-15.26-10.21l-.16,2.73-3.64-2.39c1.04,3.01-1.01,3.36-1.55,4.82-4.33,11.73-4.26,21.33-5.34,33.93-.1,1.11.69,2.23,1.52,2.8l9.2,6.29c2.53,1.73,4.85,3.24,6.91,5.98-4.04,2.49-6.03,5.73-8.07,9.55-3.47,6.5-8.28,12.03-13.73,16.98-4.87,4.43-7.97,14.96-15.52,23.11-4.44,4.79-9.23,8.69-14.72,12.91l-5.22-8.93.8,10.59-3.65-5.48c-.55,4.48-.99,8.83-.14,13.13l1.86,9.35c.19.97-1.09,2.04-1.99,2.34l5.2,13.69c.83,2.19,4.56,21.06.34,22.5-1.57,11.17-1.12,18.76,2.36,29.57.85,2.63,2.83,4.48,4.76,6.83.12.5.09-.17.05-.47-7.38-13.68-5.6-30.94-1.58-45.25,2.4,2.08,1.08,4.64,2.22,6.53l5.94,9.83-1.72-6.13c-.08-.29-.38-1.21-.14-1.37l1.43-.94-1.21-7.15c-.1-.57.21-1.91.66-2.22.55-.37,2.19-.46,2.8-.11l8.83,4.93c5.38,3,13.48,2.31,17.58,4.74,1.76,1.04,3.81,2.19,5.54,2.84l4.59-1.7c1.43-.53,1.86-2.41,2.1-3.94l11.84-7.32c.4,2.3,5.31,15.06,1.73,14.56-.02,3.56.4,7.72.93,11.52,1.01,7.25,1.58,14.13,1.52,21.45l-.21,27.83c-.06,7.99-3.79,26.51-4.35,38.29-.66,13.9-.82,33.32.87,46.95.78,6.28,1.32,12.4.69,18.73-.9,9.01-1.52,17.64-1.55,26.68,0,3.12,2.51.94,3.2,7.53h-88.46c.67-4.11-3.44-15.52-5.6-19.58-1.36-2.56-2.54-5.08-3.47-7.85-.26-.77-1.85-2.19-1.56-2.98,1.93-5.24-1.69-2.74-4.02-10.68-2.65-9.03-4.61-18.25-3.67-27.74.16-1.61.86-3.33.92-5.07l1.49-44.57c.19-5.55,1.07-10.65,2.17-16.06.39-1.9-.16-3.87-1.46-5.2l-2.88-2.95c2.27-3.06,3.71-5.83,4.77-9.26l3.2-10.38c.16-.51.03-1.74-.34-1.95l-2.07-1.19,7.3-9.5c1.76-2.3,4.03-4.39,4.98-7.13.51-1.47,1.35-2.02,2.23-3.16,1.1-1.44,1.85-4.02,3-5.79s1.76-3.28,2.12-5.36l-2.45,1.24.13-2.99-2.44.41c.03-2.14,1.49-2.25,3.02-2.32l.57-4.66,1.92,1.66c.26-.3-.26-2.04-.88-2.51l-3.21-2.42c-3.68-2.78,2.54-5.29,4.56-9.42,1.33-2.72-1.29-15.06-5.19-16.46l1.03,4.58c-2.76,2.22,1.05,4.57-2.99,5.75-.91.27-2.18.85-2.88,1.36l-1.12.82c-.32.23-1.37-.67-1.48-1.08l-2.3-8.31-4.07-.71c1.76-3.03,2.99-4.51,5.13-7.35-3.43.07-6.84.49-9.94,1.73-2.31.92-2.86,3.34-4.84,5.63l-1.2-6.04-3.39,4.45c-2.89,3.79-5.9-.85-7.53-.67,1.28,3.36,2.36,6.2,3.25,9.67.37,1.44,1.26,2.85,2.84,3.27l8.99,2.44c2.36.64,5.58,1.71,6.28,4.41.85,3.28-.52,7.06-2.17,9.83l-2,3.37c-1.54.45-3.92.55-6.02.43l.63-5.18c-2.47-1.18-4.73,1.26-9.8.48l-15.01-2.32c-4.8-.74-8.98-3.22-12.36-6.59.1-.88.25-2.23.6-2.92,6.07-11.95-1.52-21.59.34-22.65l1.97-1.12c-1.74-2.42-9.1-11.91-11.96-12.14-.41,1.89.67,3.52,2.19,4.14,1.71.7,1.92,1.83,2.46,3.44.6,1.77,1.18,2.89-.3,4.67-1,1.2-1,2.76-.03,4.05,3.42,4.54,2.49,10.93-2.16,13.97-.95-.12-2.09-.97-2.87-1.66l-2.61.77c-.17-4.56.9-8.62,2.47-12.57.17-.42.23-1.62.02-1.99-.25-.45-1.09-.86-1.86-1.04-1.44-.33-3.07.86-3.83,2.13-2.92,4.85-2.67,10.13-1.58,15.97-3.19-3.29-3.76-8.56-2.76-12.88.34-1.47,2.69-3.22,1.67-4.72-1.46-1.35-2.88-2.75-4.05-4.59l3.52-5.07-4.66-3.95c-1.39,2.66-.15,10.52-3.57,13.38-1.61-3.89-.12-7.44.39-11.41l-5.31,3.89c-1.43,1.05-2.4,3.31-2.35,5.03l.22,6.99-3.83-2.87c-3.33,3.58,15.58,18.52,6.34,18.4l-.28,2.84-2.53.94c2.27,1.96,4.52,2.79,4.79,5.56-4.01,2.56-8.69-1.93-14.85-1.43-3.53.28-5.78,3.14-5.03,6.44.12.54.08,1.74.49,1.85l2.25.58-1.39,2.09,6.23-.74c6.02-.72,12.1.92,17.95,2.1,1.78.36,2.01,2.16,2.38,3.5,8.01,5.17,8.67,2.96,15.8,4.4,3.92.79,2.9-2.68,11.48-4.99,3.18-.86,6.29-.91,9.52.02l20.17,5.83c5.89,1.7,11.59,3.49,17.35,6.29-1.73,2.48-3.89.23-5.86.05-1.9.07-2.64,2.52-3.72,4.11-2.28,3.36-22.47,2.9-25.33,2.14-7.48-2.01-13.67-7.46-21.29-9.43-2.69-.7-4.87,1.32-7.26,2.12-2.67.9-5.9.36-8.67.89l-1.14,1.67-4.93.25c1.76,1.49,3.96,3.02,5.75,4.22l-.55,1.6c-.11.31.92.7,1.28.73,5.89.52,11.8,1.01,17.06,4.38l-6.35,2.55c7.53.69,14.95,1.92,22.68,3.04l22.47,3.25c-.96,1.84-2.29,1.99-3.97,2.62,2.16.99,3.51,1.88,4.67,3.75-1.13.59-2.3,1.16-3.3,1.23l-12.44.85c-1,.07-2.53.41-3.07.88-.53,1.41-.95,1.95-2.31,2.24-3.63.76-7.22,1.76-10.83.6-1.93-.62-16.86-5.19-16.87-1.3-.94-.24-2.62-1.23-3.82-1.68-4.98-1.83-10.03-3.21-14.66-5.97-2.79-1.66-4.69-4.81-5.67-7.77-.69-2.1.39-3.65,1.46-5.12,3.17-4.38,5.39-1.1,6.36-4.56-1.93-.7-4.02-.98-6.33-1.33,1.11-.86,1.77-2.25,1.29-3.8-8.63-1.05-9.1-7.61-15.47-11.51l-.66,6.92-3.24-3.39-.11,3.14-1.68-1.24c-.36-.27-1.36.57-1.51,1.09-2.19,7.63-3.4,15.55-2.06,23.45.53,3.16,1.54,6.2,1.54,9.47v11.48c.01,1.48-.71,2.64-1.7,4.18l2.96,1.85-3.18,2.75-.55,7.92-2.51.14c-.2,2.7.38,5.3,1.52,7.85l-.69,2.27,1.57,2.26-2.58.96.17,7.26c-2.12-.2-3.34-.32-4.4.83,1.61,2.37,2.01,5.2-.11,7.63-.68-1.99-1.04-3.37-1.41-5l-4.37-19.36c-1.43-6.36-2.37-12.28-2.16-18.93.11-3.47.54-16.85-.85-18.86-.15-.21-1.12.63-1.17.98-1.05,7.71-2.69,16.97-2.65,25.16.05,10.13,1.95,19.54,4.17,28.78l1.17-8.03,3.95,14.35c1.67,6.06,4.21,11.63,6.64,17.4,1.31,3.1,2.92,5.54,5.07,8.25,1.4,1.77,1.66,4.91,1.13,7.31l-4.51,20.25-4.08,10.01c2.28-.85,3.89-2.53,5.33-4.48,3.57-4.81,7.24-9.47,12.16-12.97,4.01-2.85,8.26-5.45,10.14-10.22-3.19.76-3.36,2.83-5.95,3.39-3.26.7,6.27-10.68,7.71-10.66l2.13,1.69,3.12-3.52c1.15-4.3,2.07-8.65,4.53-12.51.44,2.91.23,5.14,1.88,7.3l1.96-14.98c.34-2.57,2.15-12.01,4.69-12.75,1.97-.57,3.89,5.56,4.3,7.18l4.58,17.77c.96,3.71,3.27,3.32,5.94,6.26.53.1,1.51-1.46,1.29-2.29-2.18-8.16-4.2-15.86-6.83-23.85-1.67-5.08-4.27-10.11-6.39-14.91-.14-.33-.17-1.49.1-1.42s1.12.39,1.3.7l4.44,7.7c1.79,3.1,3.37,6.06,4.33,9.47l5.32,18.87c.98,3.48.74,7.44-1.02,10.53-.45.8-2.47,1.4-3.26,1.92-16.32,10.73-19.47,8.58-25.12,11.88-3.79,2.21-15.19,11.52-13.93,15.47.92,2.89,9.8-9.23,11.43-7.94l-18.51,20.52c-2.21,2.45-9.51,9.91-5.56,12.5,5.25-1.89,9.07-5.62,13.88-9.34.42,1.77.47,3.64.54,5.46l1.54.15c-4.41,4.82-7.34,4.11-11.27,10.52l-5.48.77,1.34,4.28,2.32,1.07H16.59v-20.98c2.12,5.62,2.01,13.46,3.72,19.38,2.27.37,4.21,1.12,6.45,1.12h130.19c-.63.01,5.36-.61,5.04-1.55-.09-.27-.68-.92-1.01-1.01-2.12-.54-4.94-2.77-3.89-5.6.56-1.5,2.36-3.22,2.66-4.87.85-4.73,1.16-9.44-.1-14.2l-7.63,6.75-6.88,6.09-2.75-3.74c-.16-.22-.86-.79-1.06-.63l-1.09.84c-.76.59-2.64.13-3.63-.48-2.8-1.72-.82-5.71-4.16-8.26l-1.53.1c-.33.02-.84-.79-.98-1.1-1.08-2.49-3.44-3.92-4.92-5.93-3.32-4.5-4.72-10.14-5.78-15.63l.76-4.52c-4.08-9.03-4.6-33.86-2.78-41.58l2.53-10.69c.6-2.55,1.6-5.4,2.48-7.85l-2.7-1.43,3.08-2.65c2.56-4.89.56-14.2,5.88-18.61,2.21-1.83,3.96-3.47,5.89-5.59l18.02-19.76,7.05-7.67-1.24,6.74,4.91-3.89c3.36-2.66,4.19-7.99,5.38-12.21l3.32-11.84,2.97-2.29c-.5-.16-1.63-.73-1.62-1.41.16-7.06,2.54-15.88,6.87-22.32,2.26-3.37,2.65,4.66,6.55,2.89-4.47-9.24-2.41-17.69,1.68-26.4,1.05-2.24,1.29-4.37,3.24-6.17,3.47-3.23,6.49-6.79,9.61-10.36,9.22-10.55,20.87-1.25,25.39.59,5.52,2.24,10.42,3.97,13.87,9.45,2.25,3.57,6.12,7.07,10.1,8.37,1.71-.33,3.74-.71,5.39-.56l4.52.41-2.57-13.64c-.52-2.78-1.98-10.42-3.85-12.32-3.64,2.51-3.81,6.19-4.32,10.36-3.86-3.05-5.33-7.32-7.22-11.73-1.32.97-1.42,2.21-1.35,4.07-5.28-.96,1.29-8.2-3.34-9.66-.72-.23-2.25.28-2.74.98-1.25,1.76-1.03,3.46-.77,5.79l-4.03-2.19,3.58,5.84c-2.3-.48-3.8-2.23-4.97-4.07l-3.15-4.91-1.36,1.42c-.83-1.02-1.52-1.61-2.49-1.99l-1.35-.53c-.29-.11-.11-1.35.02-1.54l2.59,1.07c.68.28,1.92-.66,2.84-1.28l-2.9-2.2-7.46.08c-.97-1.33-1.52-3.5-1.74-5.52l2.64-.59-4.52-7.87c-.54-.94-1.08-2.79-1.48-3.75-3.98-.72-1.9-4.66-4.4-9.04s-5.22-8.83-6.68-13.7c1.61-2.03.97-7.08,2.11-6.71,2.06.68,1.2,1.62,3.23,2.51,2.52,1.11,1.8-9.62,1.63-10.44-1.04.63-1.69,1.03-2.2,1.22-.48.18-.81-1.61-.7-2.13,1.15-5.26,3.91-9.64,7.25-14.01l-9.23-2.52c-6.8-1.86-4.87-.39-9.52-2.71-5.42-2.7-1.91-3.45-5.04-8.12l-3.6-.88c1.38-1.7,1.97-2.34,2.43-3.73-3.45-1.27-9.3,6.3-8.61,1.18.12-.9.6-1.23,2.14-1.26.55.91.4.36.25-.28-.7-2.52-.03-4.05,2.18-5.19,4.73-2.43,1.56-4.79,5.41-7.62l.4-3.51c4.94,2.24,1.53,6.21,6.71,11.46,5.81,5.88,8.31,4.74,8.11,7.88,3.28-.84,7.48-3.05,9.16-5.62,1.95-2.98-10,1-10.72-4.7-.16-1.25.83-2.59,2.24-2.99l8.57-2.45c.89-.26,1.59-.55,2.86-1.04l-.1-1.32c-2.67-.88-10.09-.26-11.37-1.17-1.53-1.08-1.85-3.48-1.8-5.42l6.73,1.54c3.86.88,7.69-2.07,9.32-5.52,1.39-.47,4.19,1.16,5.03,1.8,1.38,1.07-3,3.81-3.47,5.9,4.48.4,7.3-2.51,12.08-1.94.76,2.27-1.63,1.69-2.49,2.36-3.3,2.57-5.84,5.82-8.49,9.1l.22.83,8.17-7.54c3.18-2.93,6.53,4.61,7.8,6.86l2.57-2.52c1.18,2.61,1.86,4.24,2.57,6.59,1.93,6.41,6.92,7.31,7.07,6.3.43-2.87-2.36-4.93,1.6-9.32-3.15-2.01-2.09-13-1.85-17.01.3-4.88,6.03-8.07,3.44-17.2-2.69.82-2.56,6.25-8.27,8.41-.24-1.59-.41-3.33-1.15-3.92-2.35-1.85-4.52.6-6.49,1.02-5.81,1.22-11.48-2.15-15.56-5.97-1.63-1.52-3.29-2.44-5.51-2.15l-13.66,1.8c-2.47.33-4.48,2.55-6.85,3.49l.14-2.59c-1.95,1.21-3.45,2.63-6.05,3.89,1.01-4.89,5.07-7.94,8.76-10.84l1.99-1.56c.17-.13.16-.9-.02-.82l-.85.41-9.59,4.64c2.03-4.24,6.72-5.08,10.43-6.24.61-.19,1.94-1.2,2.66-1.19,2.56.06,5.82-2.36,8.43-2.6,7.9-.73,15.5.76,23.29.55,9.92-.26,9.89,2.21,19.07,3.63l2.79,5.88c.17.36.91.97,1.26,1.03.42.08,1.34-.7,1.5-1.1,1.74-4.41-.85-9.67,2.81-10.05,2.52-.26,4.65-1.04,6.73-2.41l4.17-2.74c7.17-.28,13.77-1.58,20.42-4.17,2.35-.91,5.32-.92,7.84-1.04l8.27-.39c1.89-.09,3.71.75,5.09,1.85l-1.53.95c-1.39.87,2.47,8.47,2.14,10.95l-4.45-3.52c-.36-.28-1.72-.29-1.98.02s-.37,1.17-.22,1.55l1.36,3.46c-5.3-.97-8.76-3.21-12.61-6.15-.81-.62-.89-2.35-1.26-3.86l-3.21,4.56c1.76,2.78,3.7,4.19,6.47,6.02-.27,1.88-4.76-1.82-7.39-1.66-.24,1.39.34,2.19,1.4,3.77-2.57,1.38-5.45,2.42-8.49,3.25l-2.38-1.76c-4.96,3.15-10.08,5.39-15.69,7.17-4.65,1.48-4.9-1.08-6.75-.26-2.88,1.27-2.5,5.94-1.1,8.71,4.19,8.31,7.64,16.59,10.47,25.49.11.36.67,1.28,1.05,1.32,1.33.17,3.32-.09,3.85-2.15l1.47-5.73c.87-3.38-.74-6.79-.73-10.76,2.33.23,4.08,1.5,5.64,3.06l-1.22,3.3c5.73,3.01,12.15,6.1,17.93,8.1.54.19,1.78-.82,1.9-1.26.52-1.97-5.6-.81-8.95-7.02-1.73-1.37-5.14-.91-6.02-4.16,1.84-1.41,5.65-1.15,6.51-2.74,1.72-3.18-6.31-8.08-5.55-10.97,2.47,2.5,5.06,3.54,8.39,3.98,6.29.83,5.23-2.68,11.43-3.73l-.84-2.67c1.82.21,3.53.98,4.34,2.17-1.65,6.55-5.45,5.92-9.96,9.21l6.41,1.11c1.93,3.18,2.31,7.67.23,10.85-1.21,1.85-2.26,3.44-2.79,5.84,5.74-.7,3.2-5.5,7.91-7.02l1.9,1.11c6.15-4.91,4.61-7.11,11.93-12.38,1.4-1,2.24-2.3,2.47-3.9l3.46-1.4c-1.05-3.11-1.12-5.9.04-8.94l2.34,1.26c1.59-2.77.68-5.11,2.32-8.5,2.92,2.06,3.9,4.82,4.51,7.68-1.11.18-2.16.28-2.61.57-1.56,1.02,1.74,11.76-.4,15.87-1.58,1.17-5.08,2.18-4.93,4.69,1.14,6.18,1.57,13.98-.7,20.02-.95,2.53-1.47,5.63-3.63,7.47l-5.6,4.79c-.91.78-.05,3.17-2.27,2.96l1-6.15c-2.27,1.05-4.43,2.59-6.35,4.02-.57.22-1.73-.6-2.31-1.23-1.75,1.37-3.33,2.94-4.2,5.44l3.24.06c.75,3.19-2.29,4.87.24,6.74,2.63,1.94-2.45,4.15,1.94,6.65l2.86-1.21-2.36,4.68c-.75,1.49-1.06,3.32-.28,4.85.55,1.08,2.09,2.77,3.64,2.6,2.73-.31,2.07-6.05,4.14-8.84,6.71-9.03,3.52-8.86,9.06-17.4l1.17,5.51,2.81-5.75c1.81,5.57,2.16,11.27,1.13,16.63-.83-.28-.99-.32-1.32-.26l-4.73,13.05,1.24.06c.28.01.58,1.08.42,1.43l-6.22,13.21c-4.51,9.58.53,9.19-2.88,16.83l-3.93,8.82c.74.85.89,1.22,1.41,2.81,4.97-5.09,3.14-5.06,8.89-9.39,4.8-3.61,11.41-14.11,7.38-14.51-2.48-.25-2.89-1.61-3.08-3.74-.4-4.42-.55-8.88,1.95-12.69,4.41-6.71,7.11-14,7.96-22.02l1.22-11.58c.53-5.01,1.5-10.24,3.38-14.78,1.47-3.54-.56-5.59-1.24-8.37-1.52-6.17,3.97-16.46,4.12-17.02l1.86-7.09,6.27,7.11c1.15,1.3,2.38,2.49,3.23,4.2,3.6,1,14.9,1.15,17.06-2.9,3.82-7.18,2.62-19.26-5.21-23.09l.18,5.61-5.43-4.19c-.94-.73-2.3,1.58-2.52,2.56l-3.35,14.66c-.15.65-1.47,2.03-2,1.64-6.89-5.15-10.93-14.3-13.18-22.3,3.14-2.45-2.45-5.55-1.27-7.55l.94-1.59c.21-.36-.41-.84-1.24-1.81l1-.99,3.58,2.22c.16.1.86.13,1.05.14s.22-.8.11-.96l-3.45-4.93c-.25-.36-.11-2.02.3-2.02s1.31.26,1.62.65l5.89,7.38c.58.73,1.31,2.04,2.04,2.11,1.14.11,2.2-.15,3.44-.65.89-.01-13.46-14.57-7.85-11.51,6.19,3.38,12.67,6.76,19.73,8.15.63.12.74-1.75.57-2.52,5.7-.37,6.57,5.54,9.6,2.04,2.17-2.5,4.66-4.15,7.9-5.86l-1.27,4.51,5-2.56,1.1.86-1.84,3.77c4.89-3.06,8.81-7.75,11.28-13.13l-1.28-1.89c-2.92-4.31-2.01-10.56-6.4-14.89-2.48-2.45-8.51-7.78-12.28-6.11l2.16,5.97c.16.45.04,1.72-.25,2.06-2.16,2.51-9.35-3.22-10.94-6.21l8.32-13.34c.79-1.26,4.16-7.9,1.45-7.86-.89.01-1.39.46-1.8,1.29-2.07,4.2-4.82,8.12-9.32,10.57l6.05-10.32c.86-1.47,1.81-2.72,2.86-4.12,2.09-2.78-6.47-6.88-8.97-7.23-2.68,5.31-9.5,10.92-14.27,14.19-2.53,1.73-5.43,2.55-8.15,3.84-3.35,1.59-6.45,3.38-10.14,4.46l-38.73,11.36c-18.7,5.48-37.52,9.14-56.88,11.94-16.92,2.45-33.59,2.97-50.59,3.48-9.28.28-17.85-1.1-26.56-3.84l-17.36-5.45c3.3-1.37,8.44.31,13.41-.84-.19-.69-.87-1.37-1.43-1.49l-7.43-1.56c2.09-1.44,3.95-2.69,4.38-4.75-1.64-2.01-4.29-2.69-6.57-3.78-3.24-1.56-6.86-.84-8.53,2.78-1.33,2.9,4.63,3.86,5.79,5.85-3.94.75-6.94.09-10.37-.52l-16.55-2.97c-9.05-1.62-18.21,1.16-26.85,4.03-3.25,1.08-6.6,2.9-8.51,5.77-1.18,1.78-.46,4.47,1.1,5.92,2.16-3.27.22-6.89,6.13-8.89,8.31-2.82,18.33-4.4,26.93-4.08.55.02,1.42.76,1.67,1.01.31.31-.7,1.3-1.18,1.36-8.43,1.08-25.85,2.75-31.4,9.06l1.67,6.22c1,3.72,9.57,14.89,10.98,17.63,1.05,2.04,4.69,5.45,6.87,6.63,2.72,1.47,5.01,3.15,6.95,5.6,2.21,2.77-2.3,2.9-5.45,6.7-1.63,1.97-1.93,5.14-.26,6.97.68.74,1.35,1.53,1.91,2.22l12.44-1.66c7.71-1.03,4.57-.32,11.45-6.64l.89.14c-6.57,12.99-7.27,6.86-13.5,11.18-1.72,1.19-3.49,1.31-5.49,2.02-2.42.85-5.48,2.34-7.41,4.15-1.82,1.71-3.58,5.01-4.12,7.49s1.82,6.36,3.29,7.87c1.71.29,2.6.74,3.6,1.41s3.49.52,3.37,3.16l-.18,4.07c.72.18,12.73.53,9.42-1.46l-4.14-2.49c-1.36-2.74.07-5.33,2.05-7.27,1.68-1.65,4.88-3.09,6.77-1.06,1.73,1.86.18,4.46-1.21,6.22,1.1-.05,1.97-.45,3.47-1.14l.41,4.92c2.54-.65,4.48-.91,5.86,1.35l-8.64.3c.56,3.34,4.65,6.47,1.72,10.14-1.06,1.33-1.5,3.38-2.35,4.88-2.69,4.7-5.27,9.29-6,14.86-.63,4.83-.2,10.22,2.25,14.43l.94,1.62c.89,1.54-11.35,3.92-12.53,4.15-8.65,1.71-16.87,3.82-24.88,7.45-3.94,1.78-7.39,3.98-11.05,6.27-1.68,1.05-3.69,1.6-5.55,1.75.99,2.73-1.95,5.53-4.25,7.18-3.6,2.58-7.17-7.02-15.65-4.82-4.04,4.55-7.46,9.73-10.29,15.08-4.71,8.91-2.89,18.34-4.46,25.29-.55,2.46-1.83,4.26-.28,6.97,1.18,2.04,2.02,5.35.81,7.77-.44.88-1.66,1.85-1.64,2.64.06,3.08,3.83,6.18,1.34,7.43-.56.28-1.72.37-1.75.78-.04.5.46,1.62.89,1.98,1.81,1.51,2.61,4.89.37,6.51-2.74,1.99-7.66,4.22-8.32,8.21-1.42,8.62,1.15,17.39,4.51,25.21,1.57,3.65,2.52,6.93,3.03,10.82.72,5.49,4.13,5.66,3.24,10.09-.25,1.23-1.5,2.22-2.82,3.16l-4.03,2.9c-2.32,1.67-4.52,3.62-6.74,5.45-7.69,6.35-4.66,14.97-.98,22.48,2.99,6.1,7.48,14.94,5.07,21.67-2.36,6.58-7.58,11.78-9.6,18.5-2.51,8.3-1.46,17.39-3.22,26.03-1.66,8.16,1.91,13.87,1.68,17.35-.42,6.36-2.16,12.25-3.97,18.22l-.65.48V16.24h112.19ZM216.89,115.48l-5.18-4.31c-5.36-4.46-14.42-9.43-21.9-11.48,1.63-.82,2.94-1.32,4.45-1.73,8.06-2.14,15.78-4.41,23.58-7.33,5.02-1.88,2.55-4.06,5.05-9.82,1.89-4.35,3.09-8.71,3.86-13.51.74-4.63-5.69-7.45-11.81-6.23l-16.37,3.26c-6.11,1.22-12.01,2.48-17.93,4.37-7.85,2.51-17.54,8.92-26.33,10.39,6.26-3.96,10.98-4.37,17.09-8.11l-7.33-1.51c-.97-.2-2.03-1.12-2.18-2.11-.32-2.11-1.2-3.46-2.03-5.29-5.86-12.87-2.56-18.17-9.12-29.1-1.79,3.07-3.05,5.87-4.48,8.94-1.05,2.25-4.01,4.44-3.89,7.22.32,7.42,5.13,14.97,5.21,26.86.04,6.36-2.83,6.76-3.94,12.17l6.46.06,1.22,10.51c.24,2.1,1.27,2.8,2.37,4.31,6.38,8.73,10.41,5.45,19.72,3.14-3.86,6.76-7.86,12.08-12.09,17.82-.58.79-1.37,2.19-1.73,3.1,3.5,15.1,2.64,11.56,10.44,21.74.84,1.1,2.48,2.09,3.93,2.21l15.96,1.27c8.02.64,10.47-3.23,19.2-3.81.92-1.12,1.89-2.88,2.32-4.34,2.34-7.89,4.25-15.47,6.02-23.56.27-1.24.42-4.29-.57-5.12ZM314.71,121.46c.11-3.24-.48-6.45-.74-9.69s-1.33-6.02-3.32-8.35c-2.74-3.2-11.02-12.64-14.96-13.56-.32-.77,1.65-1.93,2.53-1.68,3.38.94,5.62-.97,7.81-2.72,2.72-2.18,5.89.28,7.01,2.88,1.14,2.64,2.27,5.11,4.76,6.99-.31-7.13-1.35-13.64-.41-20.56.39-2.82,3.37-6.17,1.74-9.13-1.58-2.87-5.9-2.39-8.63-3.03s-4.97-2.72-7.63-3.74c-6.81-2.59-13.93-3.81-21.31-3.78-8.8.04-17.21.23-25.99.72-6.97.39-13.66,1.96-20.15,4.15-2.07.7-2.84,2.99-1.86,4.94,4.11,8.16,9.35,15.71,15.38,22.36,9.31-.33,17.62-.73,27.09-.39l-11.78,12.39c-2.31,2.43-4.37,5.38-5.2,8.71-.54,2.15.73,4.69,1.98,6.37,3.89,5.23,7.43,10.31,10.43,16.08,3.83,7.35,1.53,10.01,5.64,10.8,4.63.9,8.1-.92,12.26-2.37,2.95-1.03,6.45-.87,9.39-2.49,2.33-1.29,4.98-1.24,7.47-2.25,4.72-1.92,8.3-7.52,8.48-12.66ZM361.24,110.41c-.51-.46-1.82-.57-2.71-.15-1.53.73-23.11,11.4-21.32,12.9s20.12-11.37,24.03-12.76ZM333.36,124.33c.25-.88-.32-2.31-.86-3.06l-4.43-6.18c-1.23,2.11-2.27,2.95-3.96,4.06-2.82,1.83-8.45,8.1-7.99,11.08.21,1.37,16.18-2.15,17.24-5.9ZM246.02,150.36c3.78-3.07,8.25-4.16,12.99-4.61,2.55-.24,10.7-2,10.45-5.22-.06-.72-.71-2.26-1.42-2.77-7.82-5.62-16.67-9.67-26.01-12.02-3.31-.83-6.22-.17-8.68,1.97-5.46,4.75-10.58,9.6-15.37,15.02-1.41,1.6-2.15,3.53-2.19,5.64-.02,1,1.28,2.83,2.32,2.72,2.56-.28,4.66-.7,7.02-1.24,8.3-1.91,12.53.38,20.88.51ZM386.55,222.9c1.58-1.43,2.93-3.41,3.44-5.46l3.09-12.42c.61-2.46,1.17-4.66.68-7.49-2.34,2.47-3.77,4.86-5.43,7.49l-8.79,13.99c-3.63,5.77-6.37,5.7-9.77,9.78,3.17,3.58,13.57-2.98,16.78-5.89ZM275.35,246.47c2.33-6.34-4.4-11.42-4.34-9.3s3.45,3.36,4.34,9.3ZM248.59,240.98c-.22-.36-1.42-.85-1.73-.6-1.49,1.2-1.3,8.22-.86,11.11,3.95-1.88,4.91-6.81,2.58-10.5ZM234.56,267.69c1.16,2.14,2.4,3.65,3.94,5.05l12.34,11.3c2.67,2.45,5.65,3.6,9.33,3.29s7.46-.23,10.72-2.42c1.71-1.15,4.18-4.28,4.23-6.42.13-5.9,1.21-11.8,6.79-15.37.37,1.24-5.41,10.12-3.19,9.57,3.02-.74,5.98-8.35,7.58-11.18-2.48-2.03-4.01-4.18-4.99-7.13-.31-.79-2.5-1.03-3.2-1.49l-3.34-2.21c-1.09,3.07-1.21,5.94-1.1,9.17l2.15-.39c-.7,3.17-4.61,4-5.53,5.84-1.48,2.98-3.08,5.91-5.53,8.51-7.87-5.27-3.18-5.84-7.27-8.61-1.83-1.24-3.14-2.76-5.59-2.9l1.42,3.24c-2.85-1.06-5.42-2.03-7.99-3.23-1.72-.8-2.36-1.17-3.97.2-2.14,1.82-4.2,3.3-6.8,5.15ZM208.16,293.61l2.51-7.47c1.04-3.08,3.36-9.63.17-10.85-.69-.26-2.46.08-2.56.84l-1.46,11.38c-.27,2.11-.31,4.22,1.33,6.1ZM302.9,300.14c.26-2.27-.92-3.91-3.07-4.32-2.5-.49-11.76-1.19-12.9,1.71-.12.31.55.96.96,1.09l11.96,3.85c.73.23,1.93.41,2.35.03.36-.32.6-1.45.7-2.35ZM281.65,297.34c-1.35-.85-4.25.18-4.67,1.74,1.15,1.75,4.86.18,4.67-1.74ZM260.55,332.16c-.6.71-.5,2.3-.02,2.86,1.99,2.28,5.55-.34,7.46-2.18,8.22-7.93,14.05-6.47,19.37-12.45.37-.42.47-1.71.21-2.16s-1.71-.53-2.12-.2l-4.42,3.54c.77-4.31,2.77-7.69,5.75-10.59l5.79-5.63c.24-.24.17-1.44-.11-1.42-.21.01-.84.05-1.03.16l-3.22,1.89-.83-3.68c-5.27-2.25-11.76,5.87-15.78,8.89l-15.87-.28c-1.65-.03-3.36-.63-4.8-1.19l6.61-.69-3.89-2.27,13.35-.21c2.8-.04,4.84-1.08,6.42-3.42,1-1.48,2-3.09,2.17-4.96-3.71.77-6.81,1.4-10.44,1.53l-18.25.66c-2.62.1-4.87,1.65-7.38,1.76l-7.11.3c-2.17.09-4.34,1.31-6.55,1.74-.75,1.94,1.96,3.96,4.31,3.61l11.73-1.75c.83,1.79,3.03,5.48,4.52,6.04l5.21,1.96c-4.99.34-9.2.07-14.2-.11l9.52,4.64c1.59.77,4.06,1.35,5.86,1.8,2.21.56-1.14,4.65-2.15,7.22-.69,1.76-1.02,3-2.81,3.96-.88.47-2.28,2.01-1.82,2.96,1.01.77,2.9.06,3.95-.57l9.43-5.69c1.43-.86,3.32-1.09,4.75-.25l-3.58,4.2ZM300.61,334.43c1.08-2.53,1.34-4.73,1.85-7.82l3.37,2.91c1.08-3.71-6.2-9.45-9.76-9.31l1.66,12.57c2.54-3.66.2-6.84.16-10.77,1.35.55,2.09,2.34,2.18,3.85l.53,8.55ZM243.33,369.7c-1.29-2.04-2.85-3.6-3.48-5.89l-2.16-7.86c-.59-2.16-1.65-4.24-3.39-5.8-.14,6.02,1.65,11.44,2.71,17.26-.7,1.39-2.57,3.21-2.09,4.88.68,2.34,3.13,4.68,5.35,5.17,2.81-.75,4.63-5.26,3.05-7.76ZM247.29,378.55c1.02,1.07,3.11,1.96,4.27.78,3.1-3.14-2.82-15.16-7.08-17.91.31,4.98,7.27,11.4,2.82,17.13ZM297.73,369.06l-4.65-6.63c.55,1.98,1.28,3.74,2.52,5.75l6.31,10.2c.76,1.23,4.02,2.35-4.18-9.32ZM298.36,395.85c-1.67.62-4.66,6.09-2.73,6.37,2.1.31,3.5-4.64,2.73-6.37ZM298.49,423.81c.52-3.45.3-6.65-1.07-9.67-.57,3.45-.08,6.46,1.07,9.67ZM297.9,456.77l-2.8-13.73c-.74-2.69-1.17-6.34-3.36-8.17l-4.29-3.58c-.53-.45-1.39-.85-2.36-1.02.41,3.66,5.3,2.55,5.91,9.16.54,5.77,1.98,11.33,4.87,16.31.46.79,1.59,1.68,2.03,1.03ZM317.54,441.82c-2.09-3.01-6.04-2.57-10.31-5.57.39,1.53.71,4.65,2.61,5.32,2.42.86,5.12.63,7.69.25ZM301.58,461.89c-.66-1.34-1.31-1.99-2.25-2.06-.21.39.05,1.55.43,1.88.34.29,1.45.37,1.82.19ZM304.51,488.98c.9.8,2.73-1.12,2.97-2.05l3-11.97c.2-.8-.73-2.52-1.38-2.72l-2.47,1.53c-2.65-2.85-7.7-1.15-5.42-4.94l1.38-2.3c-3.01-.61-3.92-1.47-6.63-3.41l1.63,8.26c.09.46-1.13,1.42-1.29.98-1.32-3.51-3.12-7.19-7.06-8.11-.17,4.19,3.29,8.01,1.7,13.44-.76,1.02-3.07,1.54-4.65,1.97,2.28,3.59,10.52,11.79,14.38,5.91l3.84,3.4ZM304.03,465.2c.06,1.3-.08,2.97.33,3.55.38.55,2.5,1.77,3.65,1.8.37,0,.94-.89.77-1.22-.45-.91-3.72-2.72-4.75-4.14ZM224.49,532.78c-.47-1.23-10.41,4.41-7.4,4.56,1.8.09,6.1-2.7,7.4-4.56Z"/>
</svg>